<svg id="e5ae22c7-b97a-4950-bed0-08da9ebfbb70" data-name="Layer 1" xmlns="http://www.w3.org/2000/svg" viewBox="0 0 1024 1024"><g id="e168c5ad-55ce-4347-98da-885138dff749" data-name="icon"><path d="M512.07,85.34C748.87,84.07,939.55,278,938.66,512.13,937.77,749.76,748.58,939,511.3,938.67c-235.49-.31-425.88-189-426-428C85.25,277.43,275.33,84.35,512.07,85.34ZM898.91,512.05c.83-218.08-177.32-388.55-387-388-215.49.51-387.66,176.26-387,388.36.64,218.1,179.47,388.71,390,387.14C727.3,897.92,900.05,723.64,898.91,512.05Z" style="fill:#fff"/><path d="M898.91,512.05c1.14,211.59-171.61,385.87-384,387.45-210.54,1.57-389.37-169-390-387.14-.63-212.1,171.54-387.85,387-388.36C721.59,123.5,899.74,294,898.91,512.05ZM379.22,669.15c0,13.6-.08,27.2.06,40.79a30,30,0,0,0,1.43,9.39,8,8,0,0,0,4.28,4.36c7.5,2.65,15,5.45,22.78,7.06,16.75,3.47,33.63,6.3,50.48,9.27a131.94,131.94,0,0,0,16,2.16c16.31.83,32.66,2.15,49,1.68,11.08-.32,22.08-3.29,33.11-5.13a19.69,19.69,0,0,0,4.6-1.31c13.54-6,28-10.36,39.62-20.09,7-5.85,14.65-11.22,20.41-18.13a164.71,164.71,0,0,0,17.92-27.27c4.66-8.65,9.67-17.86,11.1-27.34,2.5-16.51,3-33.4,3.1-50.15.07-9.07-.82-18.71-3.91-27.13-4.26-11.61-9.09-23.58-18.67-32.2-9.11-8.2-18.43-16.3-28.46-23.29-6.73-4.69-14.74-7.65-22.39-10.87q-14.21-6-28.79-11.06c-10.11-3.51-20.44-6.4-30.61-9.77-6.57-2.17-13.33-4.12-19.45-7.25-11.05-5.65-21.76-12-32.47-18.28C450.36,444,441,428.3,441.72,407.3c.32-8.91.59-18.27,3.47-26.53,3.41-9.8,9.59-18.4,17.72-25.68,10.87-9.72,23.29-16.23,37.28-18.32,12.56-1.88,25.53-1.8,38.27-1.34,11.91.43,23.78,2.28,35.61,3.92,5.49.77,10.78,2.92,16.26,3.74C601,344.7,602.42,346,603,356.64c.21,3.8.08,7.61.39,11.39.71,8.36.93,16.84,2.58,25,1.88,9.3,7,14.29,16.59,13.66a89.28,89.28,0,0,1,13.78,0c5.78.53,8-2.37,8.49-7.5.18-2,.28-4,.28-6q0-35.1,0-70.19a35.09,35.09,0,0,0-.68-8.34c-.43-1.69-1.77-3.81-3.27-4.47A113.18,113.18,0,0,0,624,303.69c-12.86-3.42-25.8-6.62-38.85-9.22-12.88-2.57-25.88-5.63-38.92-6.09-23.61-.82-47.23-2.32-70.56,5.6-13.17,4.47-25.79,9.76-36.73,17.68a132.78,132.78,0,0,0-32.18,33.25C397.15,359,391.66,374.65,389,390.66c-5.06,30.57.35,59.73,18.47,85.8,12.2,17.55,29.37,29,47.9,38.24,8.93,4.47,19.15,6.34,28.77,9.4,1.72.54,3.41,1.16,5.11,1.74q16.56,5.68,33.11,11.36c9.2,3.12,19,5.12,27.48,9.52a199.13,199.13,0,0,1,33,21c11.41,9.12,17.36,22.43,19,36.77,2.22,18.85-2.33,36.38-11.74,53.18-8.84,15.77-22.24,26-38,31.91-17.46,6.5-36.14,10-55.18,8.38-7.34-.63-14.79-1.08-21.92-2.77-13.5-3.19-26.76-7.42-40.21-10.81-10.27-2.59-12.35-4.65-13-15.44-.76-12-.48-24.11-2.5-35.85-1.94-11.27-5.57-15-15.4-14.24-5.37.39-10.79,0-16.19,0-7.38.07-8.42,1-8.45,8.27C379.17,641.15,379.22,655.15,379.22,669.15Z"/><path d="M379.22,669.15c0-14-.05-28,0-42,0-7.24,1.07-8.2,8.45-8.27,5.4,0,10.82.34,16.19,0,9.83-.73,13.46,3,15.4,14.24,2,11.74,1.74,23.89,2.5,35.85.67,10.79,2.75,12.85,13,15.44,13.45,3.39,26.71,7.62,40.21,10.81,7.13,1.69,14.58,2.14,21.92,2.77,19,1.63,37.72-1.88,55.18-8.38,15.81-5.88,29.21-16.14,38-31.91,9.41-16.8,14-34.33,11.74-53.18-1.68-14.34-7.63-27.65-19-36.77a199.13,199.13,0,0,0-33-21c-8.53-4.4-18.28-6.4-27.48-9.52q-16.58-5.64-33.11-11.36c-1.7-.58-3.39-1.2-5.11-1.74-9.62-3.06-19.84-4.93-28.77-9.4-18.53-9.28-35.7-20.69-47.9-38.24C389.36,450.39,384,421.23,389,390.66c2.65-16,8.14-31.62,17.73-45.75a132.78,132.78,0,0,1,32.18-33.25c10.94-7.92,23.56-13.21,36.73-17.68,23.33-7.92,47-6.42,70.56-5.6,13,.46,26,3.52,38.92,6.09,13,2.6,26,5.8,38.85,9.22a113.18,113.18,0,0,1,17.18,6.57c1.5.66,2.84,2.78,3.27,4.47a35.09,35.09,0,0,1,.68,8.34q.06,35.08,0,70.19c0,2-.1,4-.28,6-.48,5.13-2.71,8-8.49,7.5a89.28,89.28,0,0,0-13.78,0c-9.63.63-14.71-4.36-16.59-13.66-1.65-8.18-1.87-16.66-2.58-25-.31-3.78-.18-7.59-.39-11.39-.59-10.69-2-11.94-12.68-13.55-5.48-.82-10.77-3-16.26-3.74-11.83-1.64-23.7-3.49-35.61-3.92-12.74-.46-25.71-.54-38.27,1.34-14,2.09-26.41,8.6-37.28,18.32-8.13,7.28-14.31,15.88-17.72,25.68-2.88,8.26-3.15,17.62-3.47,26.53-.75,21,8.64,36.71,26.61,47.29,10.71,6.3,21.42,12.63,32.47,18.28,6.12,3.13,12.88,5.08,19.45,7.25,10.17,3.37,20.5,6.26,30.61,9.77Q565.43,495,579.65,501c7.65,3.22,15.66,6.18,22.39,10.87,10,7,19.35,15.09,28.46,23.29,9.58,8.62,14.41,20.59,18.67,32.2,3.09,8.42,4,18.06,3.91,27.13-.14,16.75-.6,33.64-3.1,50.15-1.43,9.48-6.44,18.69-11.1,27.34A164.71,164.71,0,0,1,621,699.2c-5.76,6.91-13.42,12.28-20.41,18.13-11.64,9.73-26.08,14.06-39.62,20.09a19.69,19.69,0,0,1-4.6,1.31c-11,1.84-22,4.81-33.11,5.13-16.29.47-32.64-.85-49-1.68a131.94,131.94,0,0,1-16-2.16c-16.85-3-33.73-5.8-50.48-9.27-7.75-1.61-15.28-4.41-22.78-7.06a8,8,0,0,1-4.28-4.36,30,30,0,0,1-1.43-9.39C379.14,696.35,379.22,682.75,379.22,669.15Z" style="fill:#fff"/></g></svg>