<?xml version="1.0" standalone="no"?>
<!DOCTYPE svg PUBLIC "-//W3C//DTD SVG 20010904//EN"
 "http://www.w3.org/TR/2001/REC-SVG-20010904/DTD/svg10.dtd">
<svg version="1.0" xmlns="http://www.w3.org/2000/svg"
 width="700.000000pt" height="700.000000pt" viewBox="0 0 700.000000 700.000000"
 preserveAspectRatio="xMidYMid meet">
<metadata>
Created by potrace 1.11, written by Peter Selinger 2001-2013
</metadata>
<g transform="translate(0.000000,700.000000) scale(0.100000,-0.100000)"
fill="#000000" stroke="none">
<path d="M3280 6144 c-497 -57 -869 -188 -1245 -437 -475 -315 -857 -811
-1039 -1347 -321 -946 -85 -1993 607 -2699 430 -439 940 -698 1552 -787 182
-27 533 -25 724 5 575 88 1084 345 1496 756 419 418 691 982 754 1567 14 125
14 471 0 596 -31 291 -120 595 -253 868 -142 289 -311 521 -543 744 -206 199
-416 346 -668 470 -260 127 -484 197 -785 246 -91 15 -517 28 -600 18z m640
-1140 c185 -34 393 -89 443 -116 l42 -23 3 -303 c1 -197 -1 -310 -8 -322 -9
-18 -22 -20 -101 -20 -50 0 -99 5 -110 10 -35 19 -49 66 -60 202 -16 211 -12
200 -94 220 -137 34 -269 50 -430 51 -231 1 -324 -28 -445 -140 -75 -69 -117
-148 -131 -249 -27 -195 21 -320 160 -409 161 -104 254 -147 475 -220 229 -76
385 -138 447 -180 21 -13 78 -58 129 -100 107 -89 156 -159 197 -278 27 -78
28 -90 26 -247 -2 -234 -13 -305 -69 -419 -63 -133 -124 -220 -203 -293 -94
-87 -132 -112 -259 -168 -86 -39 -136 -54 -233 -71 -115 -20 -137 -21 -319
-11 -287 15 -732 102 -773 150 -17 21 -23 667 -6 688 8 10 38 14 114 14 144 0
151 -10 165 -239 5 -80 11 -154 15 -163 9 -22 55 -40 242 -90 152 -40 164 -42
308 -42 126 -1 163 3 233 22 188 51 301 138 371 284 48 102 65 171 64 268 -1
140 -49 246 -146 319 -134 102 -206 135 -484 226 -368 121 -387 128 -476 185
-240 154 -359 370 -358 652 1 272 112 494 334 665 116 89 306 160 467 173 138
11 324 1 470 -26z"/>
</g>
</svg>
